{"title":"UFC 112 Invincible [SatRiP-XviD-Mp3-ENG][TNTVillage.Scambioetico","uid":5490349,"size":1514836992,"categoryP":"video","categoryS":"tv_shows","magnet":"?xt=urn:btih:725f372618a756a24b6c7b5f7f6cee7457fe6cc1&amp;dn=UFC+112+Invincible+%5BSatRiP-XviD-Mp3-ENG%5D%5BTNTVillage.Scambioetico&amp;tr=udp%3A%2F%2Ftracker.openbittorrent.com%3A80&amp;tr=udp%3A%2F%2Fopen.demonii.com%3A1337&amp;tr=udp%3A%2F%2Ftracker.coppersurfer.tk%3A6969&amp;tr=udp%3A%2F%2Fexodus.desync.com%3A6969","seeders":1,"leechers":0,"uploader":"maxneb","files":1,"time":1270955589,"description":"UFC 112 Invincible [SatRiP-XviD-Mp3-ENG][TNTVillage.Scambioetico]\n\n\n\nGeneral\nComplete name                    : C:UFC.112.Invincible.DSR.XviD-XWT.avi\nFormat                           : AVI\nFormat/Info                      : Audio Video Interleave\nFile size                        : 1.41 GiB\nDuration                         : 2h 53mn\nOverall bit rate                 : 1 164 Kbps\n\nVideo\nFormat                           : MPEG-4 Visual\nFormat profile                   : Streaming Video@L1\nFormat settings, BVOP            : Yes\nFormat settings, QPel            : No\nFormat settings, GMC             : No warppoints\nFormat settings, Matrix          : Default\nCodec ID                         : XVID\nCodec ID/Hint                    : XviD\nDuration                         : 2h 53mn\nBit rate                         : 1 023 Kbps\nWidth                            : 640 pixels\nHeight                           : 368 pixels\nDisplay aspect ratio             : 16/9\nFrame rate                       : 25.000 fps\nResolution                       : 24 bits\nColorimetry                      : 4:2:0\nScan type                        : Progressive\nBits/(Pixel*Frame)               : 0.174\nStream size                      : 1.24 GiB (88%)\nWriting library                  : XviD 1.1.2 (UTC 2006-11-01)\n\nAudio\nFormat                           : MPEG Audio\nFormat version                   : Version 1\nFormat profile                   : Layer 3\nCodec ID                         : 55\nCodec ID/Hint                    : MP3\nDuration                         : 2h 53mn\nBit rate mode                    : Constant\nBit rate                         : 128 Kbps\nChannel(s)                       : 2 channels\nSampling rate                    : 44.1 KHz\nResolution                       : 16 bits\nStream size                      : 159 MiB (11%)\nAlignment                        : Aligned on interleaves\nInterleave, duration             : 26 ms (0.65 video frame)\nInterleave, preload duration     : 809 ms\n\n &lt;a href=&quot;\nhttp://uptiki.com/images/hyj5lpgy0liqggahcvj.png&quot; rel=&quot;nofollow&quot; target=&quot;_NEW&quot;&gt;\nhttp://uptiki.com/images/hyj5lpgy0liqggahcvj.png&lt;/a&gt;\n &lt;a href=&quot;\nhttp://uptiki.com/images/jmbqq40v9798c9q7vve.png&quot; rel=&quot;nofollow&quot; target=&quot;_NEW&quot;&gt;\nhttp://uptiki.com/images/jmbqq40v9798c9q7vve.png&lt;/a&gt;\n &lt;a href=&quot;\nhttp://uptiki.com/images/2017g8yxhdzqa6jh5pac.png&quot; rel=&quot;nofollow&quot; target=&quot;_NEW&quot;&gt;\nhttp://uptiki.com/images/2017g8yxhdzqa6jh5pac.png&lt;/a&gt;\n &lt;a href=&quot;\nhttp://uptiki.com/images/r3ugiwk3h1yiyxdi751p.png&quot; rel=&quot;nofollow&quot; target=&quot;_NEW&quot;&gt;\nhttp://uptiki.com/images/r3ugiwk3h1yiyxdi751p.png&lt;/a&gt;\n &lt;a href=&quot;\nhttp://uptiki.com/images/0lpt17wtr53j18o219m.png&quot; rel=&quot;nofollow&quot; target=&quot;_NEW&quot;&gt;\nhttp://uptiki.com/images/0lpt17wtr53j18o219m.png&lt;/a&gt;\n &lt;a href=&quot;\nhttp://uptiki.com/images/cwbf9nx5e130t3eo6qmn.png&quot; rel=&quot;nofollow&quot; target=&quot;_NEW&quot;&gt;\nhttp://uptiki.com/images/cwbf9nx5e130t3eo6qmn.png&lt;/a&gt;\n &lt;a href=&quot;\nhttp://uptiki.com/images/pniewo1geihr9wpz1lqb.png&quot; rel=&quot;nofollow&quot; target=&quot;_NEW&quot;&gt;\nhttp://uptiki.com/images/pniewo1geihr9wpz1lqb.png&lt;/a&gt;\n &lt;a href=&quot;\nhttp://uptiki.com/images/fz4mk20zythajxq77i.png&quot; rel=&quot;nofollow&quot; target=&quot;_NEW&quot;&gt;\nhttp://uptiki.com/images/fz4mk20zythajxq77i.png&lt;/a&gt;\n &lt;a href=&quot;\nhttp://uptiki.com/images/tag5v3qpkdo768c7wco.png&quot; rel=&quot;nofollow&quot; target=&quot;_NEW&quot;&gt;\nhttp://uptiki.com/images/tag5v3qpkdo768c7wco.png&lt;/a&gt;\n &lt;a href=&quot;\nhttp://uptiki.com/images/ht5ynrha2nwohgsssn2.png&quot; rel=&quot;nofollow&quot; target=&quot;_NEW&quot;&gt;\nhttp://uptiki.com/images/ht5ynrha2nwohgsssn2.png&lt;/a&gt;","torrent":{"xt":"urn:btih:725f372618a756a24b6c7b5f7f6cee7457fe6cc1","amp;dn":"UFC+112+Invincible+%5BSatRiP-XviD-Mp3-ENG%5D%5BTNTVillage.Scambioetico","amp;tr":["udp%3A%2F%2Ftracker.openbittorrent.com%3A80","udp%3A%2F%2Fopen.demonii.com%3A1337","udp%3A%2F%2Ftracker.coppersurfer.tk%3A6969","udp%3A%2F%2Fexodus.desync.com%3A6969"],"infoHash":"725f372618a756a24b6c7b5f7f6cee7457fe6cc1","infoHashBuffer":{"type":"Buffer","data":[114,95,55,38,24,167,86,162,75,108,123,95,127,108,238,116,87,254,108,193]},"announce":[],"urlList":[]}}